<svg xmlns="http://www.w3.org/2000/svg" width="32" height="32" viewBox="0 0 32 32.005">
    <path d="M10.7,26.333c0,.132-.148.238-.335.238-.213.02-.361-.086-.361-.238,0-.132.148-.238.335-.238C10.535,26.075,10.7,26.181,10.7,26.333Zm-2.006-.3c-.045.132.084.285.277.324a.3.3,0,0,0,.4-.132c.039-.132-.084-.285-.277-.344A.328.328,0,0,0,8.7,26.035Zm2.852-.113c-.187.046-.316.172-.3.324.019.132.187.218.381.172s.316-.172.3-.3S11.735,25.9,11.548,25.923ZM15.794.562C6.845.562,0,7.531,0,16.711a16.568,16.568,0,0,0,10.935,15.83c.826.152,1.116-.371,1.116-.8,0-.41-.019-2.674-.019-4.063,0,0-4.516.993-5.465-1.972,0,0-.735-1.926-1.794-2.422,0,0-1.477-1.039.1-1.019a3.392,3.392,0,0,1,2.49,1.707,3.363,3.363,0,0,0,4.7,1.383,3.715,3.715,0,0,1,1.032-2.23c-3.606-.41-7.245-.946-7.245-7.313a5.082,5.082,0,0,1,1.523-3.9,6.4,6.4,0,0,1,.168-4.494C8.9,6.989,12,9.206,12,9.206a14.872,14.872,0,0,1,8.1,0s3.1-2.224,4.452-1.787a6.4,6.4,0,0,1,.168,4.494,5.2,5.2,0,0,1,1.665,3.9c0,6.386-3.8,6.9-7.406,7.313a3.968,3.968,0,0,1,1.1,3.071c0,2.23-.019,4.99-.019,5.533,0,.43.3.953,1.116.8A16.419,16.419,0,0,0,32,16.711,16.014,16.014,0,0,0,15.794.562ZM6.271,23.388c-.084.066-.065.218.045.344.1.106.252.152.335.066.084-.066.065-.218-.045-.344C6.5,23.349,6.355,23.3,6.271,23.388Zm-.7-.536c-.045.086.019.192.148.258A.189.189,0,0,0,6,23.064c.045-.086-.019-.192-.148-.258C5.723,22.766,5.619,22.786,5.574,22.852Zm2.09,2.356c-.1.086-.065.285.084.41.148.152.335.172.419.066.084-.086.045-.285-.084-.41C7.942,25.122,7.748,25.1,7.665,25.208Zm-.735-.973c-.1.066-.1.238,0,.39s.277.218.361.152a.308.308,0,0,0,0-.41C7.2,24.215,7.032,24.149,6.929,24.235Z"
          transform="translate(0 -0.563)" fill="#fff"/>
</svg>