<svg xmlns="http://www.w3.org/2000/svg" width="23.311" height="24" viewBox="0 0 23.311 24">
    <path d="M30.63,5.428a.269.269,0,0,0-.013-.032.4.4,0,0,0-.025-.059.281.281,0,0,0-.025-.033.439.439,0,0,0-.034-.044c-.011-.01-.024-.019-.036-.028a.415.415,0,0,0-.042-.032L25.943,2.6a.375.375,0,0,0-.375,0L21.054,5.2h0a.379.379,0,0,0-.041.032.36.36,0,0,0-.037.028.386.386,0,0,0-.034.044c-.008.011-.018.021-.025.033a.454.454,0,0,0-.024.059c0,.011-.01.021-.013.032a.379.379,0,0,0-.013.1V10.46l-3.76,2.165V2.972a.366.366,0,0,0-.013-.1c0-.011-.009-.021-.013-.032a.391.391,0,0,0-.024-.058c-.007-.012-.017-.022-.025-.034A.439.439,0,0,0,17,2.706a.444.444,0,0,0-.037-.028.46.46,0,0,0-.041-.032h0L12.406.048a.375.375,0,0,0-.375,0l-4.513,2.6h0a.306.306,0,0,0-.041.032.366.366,0,0,0-.037.028.382.382,0,0,0-.033.044c-.008.012-.019.022-.026.034a.369.369,0,0,0-.024.058.3.3,0,0,0-.014.031.383.383,0,0,0-.013.1V18.427a.375.375,0,0,0,.187.326l9.023,5.2a.414.414,0,0,0,.062.025c.01,0,.019.009.03.012a.371.371,0,0,0,.192,0c.009,0,.017-.007.026-.01a.4.4,0,0,0,.066-.027l9.026-5.2a.375.375,0,0,0,.187-.326V13.493L30.454,11a.375.375,0,0,0,.188-.328V5.526A.4.4,0,0,0,30.63,5.428ZM12.218.808h0l3.759,2.163L12.217,5.136,8.459,2.972Zm4.137,2.812v9.437l-2.181,1.256-1.579.909V5.787l2.181-1.256Zm0,19.349L8.082,18.209V3.623l1.579.908,2.181,1.256V15.874a.325.325,0,0,0,.006.042.375.375,0,0,0,.007.055h0a.277.277,0,0,0,.018.042.3.3,0,0,0,.02.047h0a.4.4,0,0,0,.028.037.357.357,0,0,0,.031.039h0c.011.01.024.018.036.027a.418.418,0,0,0,.04.031h0l4.321,2.446Zm.375-4.977-3.753-2.124L16.918,13.6l4.325-2.49L25,13.272l-2.756,1.573Zm8.649.214-8.273,4.765V18.645l6.127-3.5,2.145-1.226Zm0-5.584L23.8,11.717l-2.181-1.256V6.176l1.579.909,2.181,1.257Zm.375-4.935L21.994,5.524,25.754,3.36l3.758,2.163Zm.375,4.935V8.342l2.186-1.257,1.579-.909V10.46h0Z"
          transform="translate(-7.33 0.002)" fill="#fff"/>
</svg>