<svg xmlns="http://www.w3.org/2000/svg" width="35.344" height="24" viewBox="0 0 35.344 24">
    <path d="M24.159,8.469a1.625,1.625,0,0,0-.4.049v.019h.021a3.322,3.322,0,0,0,.315.4c.08.158.147.315.227.471l.021-.022a.548.548,0,0,0,.206-.49c-.059-.069-.068-.138-.118-.206-.059-.1-.186-.147-.265-.225ZM8.5,27.9H7.132c-.044-2.3-.181-4.462-.4-6.494H6.723L4.646,27.9H3.608L1.546,21.4H1.532Q1.3,24.327,1.244,27.9H0q.121-4.343.6-8.144H2.3L4.263,25.74h.012l1.984-5.985H7.871q.535,4.451.63,8.144Zm5.916-6.008a18.414,18.414,0,0,1-2.2,6.568,2.926,2.926,0,0,1-2.331,1.58,2.3,2.3,0,0,1-.834-.2v-.727a3.78,3.78,0,0,0,.568.038,1.373,1.373,0,0,0,.953-.327,1.186,1.186,0,0,0,.434-.891,5.907,5.907,0,0,0-.339-1.39L9.175,21.891h1.34l1.071,3.476a4.666,4.666,0,0,1,.3,1.654,22.467,22.467,0,0,0,1.23-5.129h1.3ZM32.564,27.9H28.69V19.755h1.3V26.9h2.57Zm-4.889.2-1.5-.736a3.163,3.163,0,0,0,.376-.368,4.988,4.988,0,0,0,.954-3.318q0-4.042-3.174-4.044a3.019,3.019,0,0,0-2.43,1.026,5,5,0,0,0-.951,3.306,4.828,4.828,0,0,0,.845,3.152,2.9,2.9,0,0,0,2.331.906,3.744,3.744,0,0,0,1.068-.144l1.951,1.137.53-.916Zm-4.848-1.829a5,5,0,0,1-.5-2.557q0-3.077,1.87-3.078a1.573,1.573,0,0,1,1.439.736,4.981,4.981,0,0,1,.495,2.537q0,3.1-1.87,3.1a1.574,1.574,0,0,1-1.44-.736Zm-2.442-.626a2.157,2.157,0,0,1-.76,1.7,2.986,2.986,0,0,1-2.038.663,4.084,4.084,0,0,1-2.317-.758l.349-.7a3.951,3.951,0,0,0,1.752.483,1.841,1.841,0,0,0,1.153-.324,1.11,1.11,0,0,0,.442-.906c0-.486-.339-.9-.954-1.244-.571-.314-1.713-.968-1.713-.968a1.949,1.949,0,0,1-.931-1.733,2.021,2.021,0,0,1,.692-1.6,2.609,2.609,0,0,1,1.8-.611,3.7,3.7,0,0,1,2.062.6l-.314.7a4.015,4.015,0,0,0-1.567-.339,1.387,1.387,0,0,0-.963.3,1.008,1.008,0,0,0-.365.772c0,.483.345.9.981,1.252.579.317,1.748.987,1.748.987a1.917,1.917,0,0,1,.954,1.72ZM34.2,17.025a4.515,4.515,0,0,0-1.91.277c-.147.059-.383.059-.4.246.081.078.093.206.162.315a2.259,2.259,0,0,0,.51.6c.206.162.412.318.629.457.383.236.817.376,1.193.613.214.138.431.314.648.461.108.074.177.206.315.253v-.029c-.068-.088-.088-.216-.155-.315-.1-.1-.2-.187-.295-.284a4.746,4.746,0,0,0-1.023-.994c-.315-.215-1-.515-1.134-.876l-.019-.021a3.963,3.963,0,0,0,.677-.156c.334-.088.641-.069.987-.156.156-.04.314-.088.471-.138v-.088c-.177-.177-.309-.417-.492-.582a13.059,13.059,0,0,0-1.626-1.212c-.309-.2-.7-.324-1.026-.492-.118-.059-.315-.088-.383-.187a3.8,3.8,0,0,1-.4-.757c-.283-.542-.56-1.141-.806-1.713a10.2,10.2,0,0,0-.5-1.124A9.922,9.922,0,0,0,25.807,7.44a4.8,4.8,0,0,0-1.261-.4c-.246-.012-.492-.029-.736-.04a3.573,3.573,0,0,1-.457-.346c-.56-.353-2.009-1.119-2.421-.106-.265.639.393,1.269.621,1.593a4.54,4.54,0,0,1,.5.736c.069.171.088.346.158.524a11.784,11.784,0,0,0,.511,1.321,4.517,4.517,0,0,0,.364.608c.08.108.215.158.246.334a2.867,2.867,0,0,0-.227.736,4.362,4.362,0,0,0,.286,3.314c.158.244.533.786,1.035.579.442-.177.345-.736.471-1.23.029-.118.01-.2.071-.275v.022c.138.277.277.54.4.817a5.541,5.541,0,0,0,1.277,1.318c.236.177.423.483.717.592v-.029h-.022a1.314,1.314,0,0,0-.227-.2,5.073,5.073,0,0,1-.515-.589,12.9,12.9,0,0,1-1.1-1.794c-.162-.309-.3-.642-.427-.947-.059-.118-.059-.295-.158-.353a3.634,3.634,0,0,0-.471.667,5.626,5.626,0,0,0-.277,1.487c-.04.01-.021,0-.04.021-.315-.077-.423-.4-.54-.677A4.274,4.274,0,0,1,23.5,12.5c.069-.206.364-.857.246-1.054-.062-.187-.256-.295-.364-.446a3.649,3.649,0,0,1-.353-.629c-.236-.551-.353-1.16-.61-1.711a5.1,5.1,0,0,0-.492-.755,4.955,4.955,0,0,1-.542-.766c-.049-.108-.118-.286-.04-.4a.168.168,0,0,1,.138-.133c.13-.106.493.032.621.091a5.036,5.036,0,0,1,.975.492c.138.1.287.284.464.333h.206c.315.069.67.021.965.108a6.3,6.3,0,0,1,1.417.677A8.767,8.767,0,0,1,29.2,11.665c.118.227.169.434.277.67.206.486.461.976.67,1.446a6.412,6.412,0,0,0,.7,1.321c.147.206.739.314,1,.421a7.155,7.155,0,0,1,.677.277c.339.206.669.442.987.669.162.112.652.358.682.557Z"
          transform="translate(0 -6.039)" fill="#fff"/>
</svg>