<svg xmlns="http://www.w3.org/2000/svg" width="32" height="13.281" viewBox="0 0 32 13.281">
    <path d="M6.12,23.629c-.687-.25-1.062-.453-1.062-.765,0-.266.219-.406.594-.406a4.541,4.541,0,0,1,1.937.516l.281-1.75a5.413,5.413,0,0,0-2.328-.5,2.944,2.944,0,0,0-1.922.594,2.107,2.107,0,0,0-.75,1.7c0,1.281.781,1.844,2.063,2.3.813.3,1.094.5,1.094.828,0,.313-.266.484-.75.484a5.241,5.241,0,0,1-2.219-.672l-.281,1.765a5.719,5.719,0,0,0,2.625.641,3.252,3.252,0,0,0,2.016-.578,2.2,2.2,0,0,0,.8-1.828c0-1.313-.8-1.86-2.094-2.328Zm7-2.765h-1.5V18.754L9.6,19.082l-.281,1.781-.719.125L8.339,22.6h.969v3.422A2.288,2.288,0,0,0,10,27.895a2.7,2.7,0,0,0,1.734.469,4.573,4.573,0,0,0,1.234-.172V26.348a3.72,3.72,0,0,1-.688.11c-.453,0-.656-.25-.656-.781V22.6h1.2l.3-1.734Zm4.641-.047a2.214,2.214,0,0,0-.438-.047,1.385,1.385,0,0,0-1.39.969l-.156-.875H13.73v7.36h2.344V23.441a1.529,1.529,0,0,1,1.281-.484,1.933,1.933,0,0,1,.406.031V20.816Zm1.75-3.156a1.227,1.227,0,0,0-1.234,1.234,1.235,1.235,0,1,0,2.469,0A1.227,1.227,0,0,0,19.511,17.66Zm1.172,10.563v-7.36H18.339v7.36h2.344Zm6.672-6.688a2.065,2.065,0,0,0-1.734-.813,2.452,2.452,0,0,0-1.828.875l-.125-.734H21.6V30.941l2.344-.39V28.192a3.763,3.763,0,0,0,1.062.172,2.8,2.8,0,0,0,2.094-.875,4.514,4.514,0,0,0,.953-3.157,4.547,4.547,0,0,0-.7-2.8ZM25.4,26.067a.945.945,0,0,1-.813.547,1.429,1.429,0,0,1-.641-.14v-3.5a1.3,1.3,0,0,1,.891-.469c.594,0,.891.656.891,1.906a3.415,3.415,0,0,1-.328,1.656Zm8.625-4.344a2.722,2.722,0,0,0-2.25-1c-2,0-3.234,1.469-3.234,3.844a3.924,3.924,0,0,0,.984,2.937,3.412,3.412,0,0,0,2.516.86,4.653,4.653,0,0,0,2.5-.625l-.25-1.609a4.163,4.163,0,0,1-2,.484,1.374,1.374,0,0,1-.984-.3,1.446,1.446,0,0,1-.437-1.031h3.875c.016-.109.031-.641.031-.813a4.459,4.459,0,0,0-.75-2.75Zm-3.172,2.125c.062-1.047.344-1.531.875-1.531s.813.5.844,1.531H30.855Z"
          transform="translate(-2.777 -17.66)" fill="#fff"/>
</svg>