<svg xmlns="http://www.w3.org/2000/svg" width="24" height="24" viewBox="0 0 24 24">
    <path d="M3.161,8.372,8.072,21.824A10.3,10.3,0,0,1,3.161,8.372Zm16.35,3.673a5.429,5.429,0,0,0-.847-2.84A4.814,4.814,0,0,1,17.653,6.79,1.782,1.782,0,0,1,19.38,4.961c.044,0,.087,0,.135.01A10.293,10.293,0,0,0,3.959,6.906c.242.01.469.015.663.015,1.074,0,2.744-.131,2.744-.131a.425.425,0,0,1,.068.847s-.556.063-1.176.1l3.75,11.148,2.255-6.755-1.6-4.394c-.556-.034-1.079-.1-1.079-.1a.425.425,0,0,1,.063-.847s1.7.131,2.71.131c1.074,0,2.744-.131,2.744-.131a.425.425,0,0,1,.068.847s-.556.063-1.176.1L17.711,18.8l1.026-3.431A12.706,12.706,0,0,0,19.511,12.045Zm-6.769,1.418L9.654,22.438a10.257,10.257,0,0,0,6.324-.165.771.771,0,0,1-.073-.14l-3.165-8.671ZM21.6,7.622a8.02,8.02,0,0,1,.068,1.06,9.671,9.671,0,0,1-.784,3.687l-3.145,9.092A10.3,10.3,0,0,0,21.6,7.622Zm2.966,4.94a12,12,0,1,1-12-12A12.013,12.013,0,0,1,24.562,12.562Zm-.552,0A11.448,11.448,0,1,0,12.562,24.011,11.462,11.462,0,0,0,24.011,12.562Z"
          transform="translate(-0.563 -0.563)" fill="#fff"/>
</svg>